<?xml version="1.0" encoding="UTF-8" standalone="no"?>
<!-- Created with Inkscape (http://www.inkscape.org/) -->

<svg
   width="2400"
   height="1600"
   viewBox="0 0 635 423.33333"
   version="1.1"
   id="svg1"
   xml:space="preserve"
   inkscape:version="1.4 (e7c3feb100, 2024-10-09)"
   sodipodi:docname="og-image.svg"
   inkscape:export-filename="og-image.png"
   inkscape:export-xdpi="96"
   inkscape:export-ydpi="96"
   xmlns:inkscape="http://www.inkscape.org/namespaces/inkscape"
   xmlns:sodipodi="http://sodipodi.sourceforge.net/DTD/sodipodi-0.dtd"
   xmlns="http://www.w3.org/2000/svg"
   xmlns:svg="http://www.w3.org/2000/svg"><sodipodi:namedview
     id="namedview1"
     pagecolor="#505050"
     bordercolor="#eeeeee"
     borderopacity="1"
     inkscape:showpageshadow="0"
     inkscape:pageopacity="0"
     inkscape:pagecheckerboard="0"
     inkscape:deskcolor="#505050"
     inkscape:document-units="px"
     showguides="true"
     inkscape:zoom="0.25"
     inkscape:cx="1056"
     inkscape:cy="818"
     inkscape:window-width="1920"
     inkscape:window-height="1020"
     inkscape:window-x="0"
     inkscape:window-y="28"
     inkscape:window-maximized="1"
     inkscape:current-layer="layer2"><sodipodi:guide
       position="317.5,451.79406"
       orientation="-1,0"
       id="guide1"
       inkscape:locked="false"
       inkscape:label=""
       inkscape:color="rgb(0,134,229)" /><sodipodi:guide
       position="426.14259,211.66667"
       orientation="0,1"
       id="guide2"
       inkscape:locked="false"
       inkscape:label=""
       inkscape:color="rgb(0,134,229)" /></sodipodi:namedview><defs
     id="defs1"><style
       id="style1">
      .c {
        fill: #9ecd7a;
      }

      .c, .d, .e, .f {
        stroke-width: 0px;
      }

      .d {
        fill: #513024;
      }

      .e {
        fill: #ed6b4d;
      }

      .f {
        fill: #006909;
      }
    </style></defs><g
     inkscape:label="Background"
     inkscape:groupmode="layer"
     id="layer1"
     sodipodi:insensitive="true"><rect
       style="fill:#ffffff;stroke:none;stroke-width:1.0803"
       id="rect1"
       width="635"
       height="423.33334"
       x="0"
       y="0" /></g><g
     inkscape:groupmode="layer"
     id="layer2"
     inkscape:label="Logo"
     sodipodi:insensitive="true"><g
       id="g1"
       transform="matrix(0.26458862,0,0,0.26458862,185.20304,83.846555)"><path
         class="f"
         d="m 11.94,932.57 c 6.69,5.98 21.02,11.94 31.62,11.94 8.58,0 12.1,-2.8 12.1,-6.71 0,-4.67 -6.13,-6.35 -15.44,-7.84 -15.25,-2.61 -36.84,-5.73 -36.84,-28.67 0,-15.85 13.58,-29.66 38.52,-29.66 13.48,-0.14 26.65,4.05 37.59,11.94 l -10.98,19.02 c -5.4,-5.22 -15.63,-9.88 -26.42,-9.88 -6.69,0 -11.35,2.24 -11.35,6.15 0,3.91 4.85,5.59 14.3,7.27 15.25,2.62 37.96,6.35 37.96,30.21 0,17.2 -15.07,29.84 -40.93,29.84 -16,0 -32.55,-5.4 -42.05,-13.79 l 11.94,-19.84 z"
         id="path1" /><path
         class="f"
         d="m 158.35,953.1 c -5.58,6.34 -16,13.04 -31.07,13.04 -20.46,0 -29.58,-11.55 -29.58,-28.15 v -64.17 h 28.59 v 52.36 c 0,10.82 5.58,14.55 14.88,14.55 6.78,-0.04 13.14,-3.29 17.16,-8.77 v -58.19 h 28.59 v 90.09 h -28.59 v -10.75 z"
         id="path2" /><path
         class="f"
         d="m 212.19,932.57 c 6.71,5.98 21.03,11.94 31.62,11.94 8.58,0 12.1,-2.8 12.1,-6.71 0,-4.67 -6.13,-6.35 -15.44,-7.84 -15.25,-2.61 -36.83,-5.73 -36.83,-28.67 0,-15.85 13.58,-29.66 38.5,-29.66 13.48,-0.14 26.65,4.05 37.59,11.94 l -10.98,19.02 c -5.39,-5.22 -15.63,-9.88 -26.42,-9.88 -6.69,0 -11.34,2.24 -11.34,6.15 0,3.91 4.83,5.59 14.3,7.27 15.25,2.62 37.94,6.35 37.94,30.21 0,17.2 -15.07,29.84 -40.93,29.84 -16,0 -32.55,-5.4 -42.05,-13.79 l 11.94,-19.84 z"
         id="path3" /><path
         class="f"
         d="m 303.85,939.67 v -40.85 h -14.88 v -25 h 14.88 v -24.63 h 28.44 v 24.63 h 18.23 v 25 h -18.23 v 32.82 c 0,5.23 2.97,9.14 7.99,9.14 3.17,0 6.33,-1.12 7.26,-2.24 l 5.58,21.63 c -3.53,3.35 -10.61,5.96 -21.2,5.96 -18.21,0 -28.06,-9.13 -28.06,-26.47 z"
         id="path4" /><path
         class="f"
         d="m 388.31,909.26 h 37.01 c -0.74,-6.35 -5.39,-15.48 -18.59,-15.48 -12.48,0 -17.27,8.95 -18.43,15.48 z m 18.42,-37.68 c 26.61,0 45.95,19.58 45.95,50.17 v 6.15 h -63.99 c 1.67,8.39 9.48,16.04 22.87,16.04 8.01,0 16.93,-3.17 21.96,-7.65 l 12.09,17.92 c -8.94,8.01 -23.82,11.93 -37.59,11.93 -27.72,0 -49.11,-18.09 -49.11,-47.3 0,-26.16 19.72,-47.24 47.81,-47.24 z"
         id="path5" /><path
         class="f"
         d="m 527.65,911.84 c 0,-11.01 -5.72,-14.92 -14.68,-14.92 -6.87,0.05 -13.33,3.28 -17.5,8.76 v 58.19 h -28.59 v -90.06 h 28.59 v 11.01 c 5.4,-6.34 16,-13.24 31.07,-13.24 20.47,0 29.77,11.94 29.77,28.54 v 63.78 h -28.59 l -0.06,-52.06 z"
         id="path6" /><path
         class="f"
         d="m 583.11,939.67 v -40.85 h -14.93 v -25 h 14.88 v -24.63 h 28.45 v 24.63 h 18.29 v 25 h -18.24 v 32.82 c 0,5.23 2.99,9.14 8.01,9.14 3.16,0 6.32,-1.12 7.26,-2.24 l 5.58,21.63 c -3.53,3.35 -10.61,5.96 -21.22,5.96 -18.23,0 -28.08,-9.13 -28.08,-26.47 z"
         id="path7" /><path
         class="f"
         d="m 697.14,932.76 c -2.97,-4.1 -9.66,-6.34 -16,-6.34 -7.62,0 -14.3,3.35 -14.3,10.45 0,7.1 6.7,10.44 14.3,10.44 6.33,0 13.02,-2.24 16,-6.52 z m 0,22.2 c -5.58,6.71 -16.37,11.18 -27.89,11.18 -13.77,0 -30.9,-9.32 -30.9,-29.64 0,-21.83 17.16,-28.35 30.9,-28.35 11.89,0 22.5,3.73 27.89,10.43 v -11.37 c 0,-7.84 -6.69,-13.06 -18.23,-13.06 -9.34,0.1 -18.36,3.46 -25.49,9.5 L 643.2,885.56 c 11.54,-9.89 26.98,-13.99 40.75,-13.99 21.57,0 41.85,8.03 41.85,36.01 v 56.32 h -28.59 l -0.06,-8.94 z"
         id="path8" /><path
         class="f"
         d="m 746.63,873.82 h 28.59 v 11.38 c 5.95,-7.27 17.3,-13.62 28.09,-13.62 v 27.79 c -2.29,-0.67 -4.68,-0.99 -7.06,-0.93 -7.45,0 -17.31,3.17 -21.03,8.4 v 57.06 h -28.59 v -90.09 z"
         id="path9" /><path
         class="f"
         d="m 839.82,909.26 h 37.01 c -0.74,-6.35 -5.39,-15.48 -18.59,-15.48 -12.45,0 -17.28,8.95 -18.43,15.48 z m 18.44,-37.68 c 26.61,0 45.95,19.58 45.95,50.17 v 6.15 h -63.99 c 1.67,8.39 9.48,16.04 22.87,16.04 8.01,0 16.93,-3.17 21.96,-7.65 l 12.09,17.92 c -8.94,8.01 -23.82,11.93 -37.59,11.93 -27.72,0 -49.11,-18.09 -49.11,-47.3 0,-26.16 19.72,-47.24 47.81,-47.24 z"
         id="path10" /><path
         class="f"
         d="m 971.35,932.76 c -2.97,-4.1 -9.68,-6.34 -16,-6.34 -7.63,0 -14.3,3.35 -14.3,10.45 0,7.1 6.69,10.44 14.3,10.44 6.32,0 13.02,-2.24 16,-6.52 z m 0,22.2 c -5.58,6.71 -16.37,11.18 -27.91,11.18 -13.77,0 -30.88,-9.32 -30.88,-29.64 0,-21.83 17.16,-28.35 30.88,-28.35 11.91,0 22.52,3.73 27.91,10.43 v -11.37 c 0,-7.84 -6.71,-13.06 -18.23,-13.06 -9.34,0.09 -18.36,3.45 -25.49,9.5 l -10.24,-18.09 c 11.54,-9.89 26.98,-13.99 40.75,-13.99 21.59,0 41.86,8.03 41.86,36.01 v 56.32 h -28.65 z"
         id="path11" /><path
         class="c"
         d="m 847.45,245.22 c -1.11,-0.79 -1.47,-2.27 -0.87,-3.48 9.53,-19.28 14.52,-40.49 14.58,-62.01 C 861.16,80.47 754.47,0 622.85,0 579.96,0 539.6,8.6 504.8,23.59 c -0.61,0.26 -1.3,0.26 -1.92,0 C 468.09,8.59 427.79,0 384.84,0 253.22,0 146.53,80.47 146.53,179.73 c 0.06,21.52 5.05,42.73 14.58,62.01 0.6,1.22 0.23,2.69 -0.87,3.48 -54.01,36.94 -88.54,93.43 -88.54,156.75 0,111.29 107.5,216.58 238.3,201.5 81.49,-9.39 136.71,-88.25 180.14,-137.93 0.46,-0.56 1.15,-0.88 1.87,-0.87 h 1.94 c 0.71,0 8.16,-5.88 8.35,-5.16 9.44,37.84 114.5,136.17 195.42,143.97 131.04,12.56 238.3,-90.21 238.3,-201.5 -0.03,-63.33 -34.56,-119.82 -88.57,-156.75 z"
         id="path12" /><path
         class="d"
         d="m 874.56,463.85 c 0.71,-6.06 -4.98,-11.04 -10.69,-13.07 -9.49,-3.35 -19.93,-1.89 -29.94,-0.13 -65.01,11.47 -128.67,30.97 -195.26,14.33 -15.15,-3.7 -29.08,-11.26 -40.46,-21.94 -3.29,-2.83 -5.83,-6.44 -7.39,-10.49 -1.01,-3.74 -1.25,-7.64 -0.71,-11.47 2.33,-28.54 16.28,-78 -21.45,-89.56 -1.52,-0.61 -3.2,-0.68 -4.76,-0.19 -2.86,1.18 -3.3,5.16 -2.13,8.06 1.17,2.9 3.15,5.4 3.92,8.4 1.14,4.54 -0.89,9.22 -2.86,13.47 -5.28,10.47 -11.67,20.35 -19.06,29.45 -17.66,23.15 -24.98,52.59 -20.22,81.34 0.13,0.83 0.24,1.65 0.34,2.44 2.67,20.58 -24.98,82.16 41.66,157.77 7.02,7.94 20.6,20.87 36.23,35.5 v -82.59 c -1.18,-6.03 2.38,-11.98 8.25,-13.77 73.07,-37.27 147.04,-75.51 227.32,-94.33 7.66,-1.73 36.03,-2.9 37.21,-13.23 z"
         id="path13" /><path
         class="d"
         d="m 296.14,463.99 c 16.4,3.88 33.85,2.87 50.88,1.69 20.44,-1.32 41.46,-2.87 59.62,-10.75 -4.76,-5.6 -15.3,-9.22 -18.74,-15.14 -2.94,-5.1 -5.39,-10.47 -7.32,-16.04 -2.62,-7.54 -4.22,-15.41 -8.58,-22.4 -4.7,-7.84 -12.87,-12.94 -21.96,-13.7 3.17,19.29 8.81,39.63 9.44,59.14 -8.99,-4.46 -16.78,-11.02 -22.72,-19.12 -11.17,-16.24 -24.59,-32.18 -48.21,-36.74 -0.66,-0.2 -1.37,-0.2 -2.03,0 -1.24,0.5 -1.04,1.98 -0.66,3.07 4.45,11.26 10.56,21.79 18.13,31.23 3.3,4.3 6.73,8.51 9.76,12.9 2.32,3.24 6.36,14.48 9.76,16.11 -19.04,-9.76 -41.03,-19.29 -56.13,-33.07 -2.22,-2.32 -4.68,-4.42 -7.32,-6.25 -5.57,-2.97 -11.81,-4.42 -18.11,-4.2 -3.46,0 -15.4,-0.21 -17.61,2.42 -0.49,0.7 -0.42,1.65 0.17,2.27 0.54,0.72 43.76,42.05 71.63,48.58 z"
         id="path14" /><path
         class="d"
         d="m 733.82,454.13 c 28.02,-6.58 43.09,-29.2 64.54,-43.96 1.7,-1.16 3.42,-2.19 5.2,-3.33 0.81,-0.4 1.55,-0.95 2.16,-1.62 0.57,-0.6 0.64,-1.51 0.17,-2.19 -2.29,-2.69 -14.21,-2.51 -17.67,-2.48 -6.33,-0.23 -12.61,1.21 -18.2,4.19 -2.69,1.85 -5.2,3.96 -7.48,6.31 -15.14,13.92 -37.17,23.44 -56.34,33.27 3.42,-1.76 7.51,-12.9 9.82,-16.21 3.13,-4.39 6.59,-8.6 9.89,-13 7.62,-9.48 13.76,-20.07 18.23,-31.39 0.39,-1.1 0.57,-2.57 -0.67,-3.08 -0.66,-0.19 -1.37,-0.19 -2.03,0 -23.73,4.6 -37.17,20.64 -48.44,36.97 -5.99,8.15 -13.84,14.74 -22.87,19.25 0.61,-19.64 6.29,-40 9.48,-59.5 -9.66,0.52 -17.64,6.74 -22.03,13.79 -4.39,7.05 -5.98,14.92 -8.58,22.52 -1.96,5.6 -4.44,11 -7.41,16.14 -3.46,5.95 -14.04,9.58 -18.83,15.22 18.14,7.97 39.34,9.46 59.87,10.79 17.18,1.12 34.73,2.22 51.18,-1.68 z"
         id="path15" /><path
         class="d"
         d="M 672,766 C 665.95,747.8 573.35,669.09 550.48,643.1 483.84,567.5 511.49,505.89 508.82,485.34 503.67,444.73 486.8,408.54 469.6,372.02 c -1.99,-4.3 -4.05,-8.93 -2.86,-13.47 0.77,-3 2.86,-5.49 3.92,-8.4 1.06,-2.91 0.6,-6.88 -2.24,-8.07 -1.57,-0.49 -3.26,-0.42 -4.79,0.2 -37.63,11.55 -23.68,61.02 -21.45,89.56 0.52,3.83 0.28,7.73 -0.7,11.47 -1.58,4.03 -4.11,7.62 -7.38,10.45 -13.45,12.9 -31.32,20.28 -49.55,23.98 -63.32,12.9 -124.18,-5.37 -186.24,-16.33 -9.92,-1.76 -20.37,-3.22 -29.94,0.13 -5.72,2.14 -11.44,7.01 -10.69,13.07 1.22,10.33 29.58,11.47 37.34,13.32 80.28,18.69 145.68,56.98 218.75,94.24 2.57,1.04 4.82,2.73 6.53,4.92 20.21,32.58 23.36,72.99 8.42,108.32 -14.8,35.98 -76.22,67.76 -71.07,72.08 0.84,0.69 53.3,-14.33 114.37,-20.17 1.09,-3.12 2.04,-6.28 2.86,-9.47 5.36,-19.44 7.15,-39.95 6.65,-60.5 -0.21,-10.31 -0.93,-20.65 -2.17,-30.99 -1.24,-10.33 -2.86,-20.68 -4.92,-31.06 4.6,9.61 8.29,19.64 11.02,29.94 2.77,10.35 4.77,20.89 5.98,31.53 2.32,21.31 1.43,43.37 -4.39,64.5 -0.47,1.68 -0.99,3.35 -1.52,5.03 11.51,-0.8 23.2,-1.22 34.81,-1.09 78.8,0.79 153.62,26.57 151.65,20.78 z"
         id="path16" /><path
         class="f"
         d="m 249.52,95.42 c 2.49,4.74 5.8,9 9.78,12.57 3.89,3.68 8.01,7.27 12.07,10.82 8.14,7.08 16.61,13.77 26.06,18.38 9.45,4.6 19.73,7.51 30.18,9.93 l 15.86,3.61 c 5.33,1.22 10.67,2.61 15.94,4.14 10.59,3.05 20.99,6.7 31.17,10.94 10.18,4.28 19.97,9.46 29.25,15.47 4.73,3.07 9.24,6.48 13.48,10.21 4.23,3.75 8.1,7.9 11.55,12.38 3.46,4.49 6.34,9.4 8.58,14.61 2.21,5.16 3.53,10.65 3.9,16.25 l -0.99,0.19 c -3.49,-10.02 -9.26,-19.09 -16.84,-26.5 -3.68,-3.68 -7.63,-7.07 -11.82,-10.15 -4.17,-3.12 -8.55,-5.96 -13.1,-8.5 -9.24,-5.29 -18.62,-10.27 -28.15,-14.96 -9.55,-4.75 -19.41,-8.87 -29.49,-12.34 -10.01,-3.51 -20.44,-6.11 -31,-9.02 -10.55,-2.91 -21.13,-6.34 -30.91,-11.81 -9.78,-5.47 -18.04,-12.9 -25.81,-20.54 -3.89,-3.84 -7.73,-7.61 -11.44,-11.61 -3.85,-3.97 -6.95,-8.6 -9.18,-13.66 l 0.9,-0.4 z"
         id="path17" /><path
         class="f"
         d="m 460.44,245 c -6.7,-12 -10.71,-25.33 -11.75,-39.05 -0.51,-6.86 -0.48,-13.75 0.1,-20.6 0.57,-6.82 1.5,-13.49 2.7,-20.2 2.28,-13.49 6.23,-26.63 11.77,-39.13 2.81,-6.27 6.26,-12.23 10.29,-17.79 2,-2.77 4.22,-5.38 6.62,-7.81 2.36,-2.44 4.94,-4.66 7.71,-6.62 -8.36,10.56 -13.72,22.56 -17.8,34.9 -3.91,12.46 -6.86,25.2 -8.84,38.11 -0.53,3.24 -1.01,6.48 -1.43,9.73 -0.46,3.25 -0.84,6.52 -1.2,9.75 -0.73,6.48 -1.27,12.9 -1.43,19.39 -0.17,6.5 0.04,13.01 0.64,19.48 0.61,6.54 1.6,13.1 2.62,19.82 z"
         id="path18" /><path
         class="f"
         d="m 348.01,157.66 -32.43,-5.33 c -10.74,-1.98 -21.64,-2.99 -32.57,-3.02 -10.79,0.05 -21.49,2.12 -31.52,6.09 -4.99,2.05 -9.73,4.64 -14.14,7.74 -4.42,3.18 -8.54,6.76 -12.31,10.69 l -0.23,-0.19 c 6.59,-9.05 15.4,-16.22 25.59,-20.81 5.11,-2.28 10.49,-3.89 16.01,-4.8 5.49,-0.89 11.04,-1.28 16.6,-1.16 11.02,0.35 21.98,1.69 32.75,4.03 l 32.24,6.48 v 0.29 z"
         id="path19" /><path
         class="f"
         d="m 515.74,338.5 c -1.59,-16.17 0.28,-32.49 5.49,-47.87 2.59,-7.75 6.07,-15.16 10.37,-22.1 4.31,-7.02 9.54,-13.42 15.55,-19.03 6.06,-5.61 12.85,-10.38 20.17,-14.19 7.23,-3.71 14.68,-6.98 22.3,-9.8 7.58,-2.87 15.3,-5.45 23.06,-7.67 7.76,-2.22 15.54,-4.3 23.25,-6.31 15.41,-4.03 30.39,-8.76 44.32,-15.45 6.89,-3.3 13.95,-7.17 20.87,-10.95 6.92,-3.78 13.71,-7.77 20.27,-12.05 6.55,-4.27 12.86,-8.91 18.89,-13.89 5.98,-4.99 11.53,-10.47 16.61,-16.38 2.53,-2.97 4.9,-6.06 7.15,-9.26 2.24,-3.2 4.29,-6.58 6.16,-10.03 3.75,-6.99 6.77,-14.34 8.99,-21.96 l 0.97,0.2 c -1.06,8.08 -3.16,15.99 -6.23,23.54 -3.14,7.61 -7.16,14.83 -11.98,21.5 -4.82,6.68 -10.28,12.87 -16.28,18.5 -2.98,2.87 -6.06,5.58 -9.24,8.14 -3.17,2.58 -6.45,5.05 -9.76,7.41 -6.66,4.74 -13.52,9.14 -20.53,13.2 -3.5,2.04 -7.02,4.03 -10.57,5.93 -1.76,0.96 -3.53,1.91 -5.4,2.87 -1.87,0.96 -3.66,1.91 -5.58,2.71 -7.48,3.41 -15.21,6.25 -23.12,8.47 -7.85,2.27 -15.73,4.1 -23.56,5.88 -15.65,3.47 -31.08,6.91 -45.96,12.13 -7.47,2.49 -14.78,5.43 -21.89,8.8 -7.01,3.34 -13.54,7.61 -19.43,12.68 -11.78,10.43 -20.83,23.59 -26.38,38.33 -5.71,14.87 -8.28,30.76 -7.55,46.67 h -0.97 z"
         id="path20" /><path
         class="f"
         d="m 582.48,232.86 c 5.43,-5.79 10.43,-11.97 14.97,-18.49 4.47,-6.36 8.58,-12.99 12.87,-19.65 l 3.23,-5.02 3.26,-4.95 c 2.12,-3.14 4.07,-6.4 5.85,-9.75 1.73,-3.29 3.02,-6.79 3.85,-10.41 0.89,-3.82 1.03,-7.77 0.41,-11.64 2.64,3.43 4.2,7.56 4.49,11.88 0.36,4.39 -0.12,8.82 -1.43,13.03 -1.26,4.08 -2.94,8.02 -5.02,11.75 -1.97,3.64 -4.05,7.05 -6.22,10.51 -4.37,7.01 -9.5,13.52 -15.3,19.39 -5.96,5.73 -12.98,10.82 -20.96,13.33 z"
         id="path21" /><path
         class="f"
         d="m 771.82,274 c -13.07,-2.99 -26.6,-3.45 -39.85,-1.35 -4.34,0.64 -8.64,1.57 -12.87,2.78 -4.19,1.21 -8.27,2.76 -12.21,4.63 l -11.75,5.4 c -4.12,1.86 -8.24,3.54 -12.31,5.29 -4.07,1.75 -8.18,3.58 -12.55,5.38 l -0.64,-0.76 c 5.16,-8.08 13.08,-14 20.82,-18.76 4.07,-2.5 8.45,-4.45 13.02,-5.81 4.56,-1.29 9.19,-2.34 13.87,-3.14 4.62,-0.83 9.29,-1.36 13.98,-1.59 4.67,-0.19 9.34,-0.06 14,0.39 9.21,0.9 18.24,3.13 26.81,6.64 l -0.31,0.9 z"
         id="path22" /><path
         class="f"
         d="m 676.45,288.57 c 9.42,-4.52 19.78,-6.73 30.22,-6.45 1.3,0 2.62,0 3.92,0.11 1.3,0.12 2.59,0.27 3.87,0.44 1.29,0.17 2.57,0.39 3.86,0.6 l 3.79,0.93 3.76,1 3.69,1.2 3.67,1.2 3.62,1.32 3.62,1.32 3.53,1.43 3.53,1.43 3.46,1.61 3.45,1.63 3.36,1.76 c 2.26,1.15 4.47,2.37 6.68,3.61 8.75,5.03 17.16,10.38 25.58,15.9 l -0.49,0.89 c -9.14,-4.13 -18.1,-8.6 -27.29,-12.28 -2.27,-0.97 -4.56,-1.92 -6.88,-2.87 l -3.45,-1.33 -3.49,-1.22 -3.46,-1.23 -3.5,-1.1 -3.5,-1.09 -3.53,-0.93 -3.53,-0.9 -3.57,-0.67 -3.56,-0.65 -3.59,-0.43 -3.56,-0.52 -3.56,-0.4 c -1.19,-0.14 -2.36,-0.32 -3.55,-0.5 -1.19,-0.19 -2.36,-0.26 -3.55,-0.42 -2.37,-0.3 -4.75,-0.69 -7.15,-0.83 -2.4,-0.14 -4.8,-0.6 -7.23,-0.66 -1.22,-0.07 -2.43,-0.14 -3.67,-0.26 -1.24,-0.12 -2.47,-0.27 -3.7,-0.27 -2.49,-0.11 -4.99,-0.22 -7.59,-0.56 l -0.2,-0.83 z"
         id="path23" /><path
         class="f"
         d="m 217.91,336.48 c 6.9,-3.01 13.59,-6.5 20.02,-10.44 6.6,-3.91 13.44,-7.38 20.49,-10.41 14.26,-5.99 29.29,-9.93 44.65,-11.71 15.19,-1.68 30.49,-2.12 45.75,-1.32 15.17,0.64 30.21,1.78 45.36,3.31 -15.08,2.11 -30.28,2.87 -45.35,3.5 -15.07,0.63 -30.02,1.28 -44.78,3.04 -14.69,1.69 -29.17,4.82 -43.25,9.35 -7.15,2.26 -14.04,4.9 -21.04,7.81 -7.01,2.91 -14.31,5.69 -21.85,6.87 z"
         id="path24" /><path
         class="f"
         d="m 245.43,261.85 c 5.72,2.98 10.98,6.39 16.24,9.72 5.26,3.33 10.42,6.68 15.6,9.85 5.18,3.17 10.31,6.26 15.53,9.16 5.17,2.97 10.66,5.35 16.37,7.08 5.81,1.68 11.76,2.81 17.77,3.38 6.09,0.73 12.34,1.18 18.59,1.71 12.45,1.16 24.92,2.18 37.39,3.45 v 1 c -12.52,0.32 -25.03,0.36 -37.54,0.56 -6.25,0 -12.5,0.13 -18.87,0 -6.47,-0.16 -12.91,-0.92 -19.24,-2.26 -6.41,-1.39 -12.69,-3.37 -18.73,-5.93 -5.99,-2.57 -11.65,-5.86 -16.86,-9.79 -5.12,-3.84 -9.94,-8.07 -14.43,-12.64 -4.49,-4.51 -8.66,-9.35 -12.45,-14.46 l 0.64,-0.82 z"
         id="path25" /><path
         class="e"
         d="m 333.01,224.9 c 0,2.53 -0.48,4.96 -1.45,7.3 -0.97,2.34 -2.34,4.4 -4.12,6.19 -1.78,1.79 -3.84,3.17 -6.17,4.14 -2.33,0.97 -4.76,1.45 -7.28,1.45 -2.52,0 -4.95,-0.49 -7.28,-1.45 -2.33,-0.97 -4.39,-2.35 -6.17,-4.14 -1.78,-1.79 -3.16,-3.85 -4.12,-6.19 -0.97,-2.34 -1.45,-4.77 -1.45,-7.3 0,-2.53 0.48,-4.96 1.45,-7.3 0.97,-2.34 2.34,-4.4 4.12,-6.19 1.78,-1.79 3.84,-3.17 6.17,-4.14 2.33,-0.97 4.76,-1.45 7.28,-1.45 2.52,0 4.95,0.49 7.28,1.45 2.33,0.97 4.39,2.35 6.17,4.14 1.78,1.79 3.16,3.85 4.12,6.19 0.97,2.34 1.45,4.77 1.45,7.3 z"
         id="path26" /><path
         class="e"
         d="m 550.62,165.18 c 0,3.11 -0.59,6.1 -1.78,8.97 -1.19,2.87 -2.88,5.41 -5.07,7.61 -2.19,2.2 -4.72,3.89 -7.59,5.08 -2.87,1.19 -5.85,1.78 -8.95,1.78 -3.1,0 -6.08,-0.6 -8.95,-1.78 -2.87,-1.19 -5.39,-2.88 -7.59,-5.08 -2.19,-2.2 -3.88,-4.73 -5.07,-7.61 -1.19,-2.87 -1.78,-5.87 -1.78,-8.97 0,-3.1 0.59,-6.1 1.78,-8.97 1.19,-2.87 2.88,-5.41 5.07,-7.61 2.19,-2.2 4.72,-3.89 7.59,-5.08 2.87,-1.19 5.85,-1.78 8.95,-1.78 3.1,0 6.08,0.6 8.95,1.78 2.87,1.19 5.39,2.89 7.59,5.08 2.19,2.2 3.88,4.73 5.07,7.61 1.19,2.87 1.78,5.87 1.78,8.97 z"
         id="path27" /><path
         class="e"
         d="m 397.35,75.24 c 0,2.55 -0.49,5 -1.46,7.35 -0.97,2.35 -2.36,4.43 -4.15,6.23 -1.8,1.8 -3.87,3.19 -6.21,4.16 -2.35,0.97 -4.79,1.46 -7.33,1.46 -2.54,0 -4.98,-0.49 -7.33,-1.46 -2.35,-0.97 -4.42,-2.36 -6.21,-4.16 -1.8,-1.8 -3.18,-3.88 -4.15,-6.23 -0.97,-2.35 -1.46,-4.8 -1.46,-7.35 0,-2.55 0.49,-5 1.46,-7.35 0.97,-2.35 2.36,-4.43 4.15,-6.23 1.8,-1.8 3.87,-3.19 6.21,-4.16 2.35,-0.98 4.79,-1.46 7.33,-1.46 2.54,0 4.98,0.49 7.33,1.46 2.35,0.97 4.42,2.36 6.21,4.16 1.8,1.8 3.18,3.88 4.15,6.23 0.97,2.35 1.46,4.8 1.46,7.35 z"
         id="path28" /><path
         class="e"
         d="m 629.07,295.72 c 0,2.53 -0.48,4.96 -1.45,7.3 -0.97,2.34 -2.34,4.4 -4.12,6.19 -1.79,1.79 -3.84,3.17 -6.17,4.14 -2.33,0.97 -4.76,1.45 -7.28,1.45 -2.52,0 -4.95,-0.49 -7.28,-1.45 -2.33,-0.97 -4.39,-2.35 -6.17,-4.14 -1.78,-1.79 -3.16,-3.85 -4.12,-6.19 -0.97,-2.34 -1.45,-4.77 -1.45,-7.3 0,-2.53 0.48,-4.96 1.45,-7.3 0.97,-2.34 2.34,-4.4 4.12,-6.19 1.78,-1.79 3.84,-3.17 6.17,-4.14 2.33,-0.97 4.76,-1.45 7.28,-1.45 2.52,0 4.95,0.49 7.28,1.45 2.33,0.97 4.39,2.35 6.17,4.14 1.78,1.79 3.16,3.85 4.12,6.19 0.97,2.34 1.45,4.77 1.45,7.3 z"
         id="path29" /><path
         class="e"
         d="m 700.57,101.67 c 0,2.55 -0.49,5 -1.46,7.35 -0.97,2.35 -2.36,4.43 -4.15,6.23 -1.8,1.8 -3.87,3.19 -6.21,4.16 -2.35,0.98 -4.79,1.46 -7.33,1.46 -2.54,0 -4.98,-0.49 -7.33,-1.46 -2.35,-0.97 -4.42,-2.36 -6.21,-4.16 -1.8,-1.8 -3.18,-3.88 -4.15,-6.23 -0.97,-2.35 -1.46,-4.8 -1.46,-7.35 0,-2.55 0.49,-5 1.46,-7.35 0.97,-2.35 2.36,-4.43 4.15,-6.23 1.8,-1.8 3.87,-3.19 6.21,-4.16 2.35,-0.98 4.79,-1.46 7.33,-1.46 2.54,0 4.98,0.49 7.33,1.46 2.35,0.97 4.42,2.36 6.21,4.16 1.8,1.8 3.18,3.88 4.15,6.23 0.97,2.35 1.46,4.8 1.46,7.35 z"
         id="path30" /></g></g></svg>
