<?xml version="1.0" encoding="UTF-8"?>
<svg id="a" data-name="Contents" xmlns="http://www.w3.org/2000/svg" viewBox="0 0 1000 966.2">
  <defs>
    <style>
      .c {
        fill: #9ecd7a;
      }

      .c, .d, .e, .f {
        stroke-width: 0px;
      }

      .d {
        fill: #513024;
      }

      .e {
        fill: #ed6b4d;
      }

      .f {
        fill: #006909;
      }
    </style>
  </defs>
  <path class="f" d="M11.94,932.57c6.69,5.98,21.02,11.94,31.62,11.94,8.58,0,12.1-2.8,12.1-6.71,0-4.67-6.13-6.35-15.44-7.84-15.25-2.61-36.84-5.73-36.84-28.67,0-15.85,13.58-29.66,38.52-29.66,13.48-.14,26.65,4.05,37.59,11.94l-10.98,19.02c-5.4-5.22-15.63-9.88-26.42-9.88-6.69,0-11.35,2.24-11.35,6.15s4.85,5.59,14.3,7.27c15.25,2.62,37.96,6.35,37.96,30.21,0,17.2-15.07,29.84-40.93,29.84-16,0-32.55-5.4-42.05-13.79l11.94-19.84Z"/>
  <path class="f" d="M158.35,953.1c-5.58,6.34-16,13.04-31.07,13.04-20.46,0-29.58-11.55-29.58-28.15v-64.17h28.59v52.36c0,10.82,5.58,14.55,14.88,14.55,6.78-.04,13.14-3.29,17.16-8.77v-58.19h28.59v90.09h-28.59v-10.75Z"/>
  <path class="f" d="M212.19,932.57c6.71,5.98,21.03,11.94,31.62,11.94,8.58,0,12.1-2.8,12.1-6.71,0-4.67-6.13-6.35-15.44-7.84-15.25-2.61-36.83-5.73-36.83-28.67,0-15.85,13.58-29.66,38.5-29.66,13.48-.14,26.65,4.05,37.59,11.94l-10.98,19.02c-5.39-5.22-15.63-9.88-26.42-9.88-6.69,0-11.34,2.24-11.34,6.15s4.83,5.59,14.3,7.27c15.25,2.62,37.94,6.35,37.94,30.21,0,17.2-15.07,29.84-40.93,29.84-16,0-32.55-5.4-42.05-13.79l11.94-19.84Z"/>
  <path class="f" d="M303.85,939.67v-40.85h-14.88v-25h14.88v-24.63h28.44v24.63h18.23v25h-18.23v32.82c0,5.23,2.97,9.14,7.99,9.14,3.17,0,6.33-1.12,7.26-2.24l5.58,21.63c-3.53,3.35-10.61,5.96-21.2,5.96-18.21,0-28.06-9.13-28.06-26.47Z"/>
  <path class="f" d="M388.31,909.26h37.01c-.74-6.35-5.39-15.48-18.59-15.48-12.48,0-17.27,8.95-18.43,15.48ZM406.73,871.58c26.61,0,45.95,19.58,45.95,50.17v6.15h-63.99c1.67,8.39,9.48,16.04,22.87,16.04,8.01,0,16.93-3.17,21.96-7.65l12.09,17.92c-8.94,8.01-23.82,11.93-37.59,11.93-27.72,0-49.11-18.09-49.11-47.3,0-26.16,19.72-47.24,47.81-47.24Z"/>
  <path class="f" d="M527.65,911.84c0-11.01-5.72-14.92-14.68-14.92-6.87.05-13.33,3.28-17.5,8.76v58.19h-28.59v-90.06h28.59v11.01c5.4-6.34,16-13.24,31.07-13.24,20.47,0,29.77,11.94,29.77,28.54v63.78h-28.59l-.06-52.06Z"/>
  <path class="f" d="M583.11,939.67v-40.85h-14.93v-25h14.88v-24.63h28.45v24.63h18.29v25h-18.24v32.82c0,5.23,2.99,9.14,8.01,9.14,3.16,0,6.32-1.12,7.26-2.24l5.58,21.63c-3.53,3.35-10.61,5.96-21.22,5.96-18.23,0-28.08-9.13-28.08-26.47Z"/>
  <path class="f" d="M697.14,932.76c-2.97-4.1-9.66-6.34-16-6.34-7.62,0-14.3,3.35-14.3,10.45s6.7,10.44,14.3,10.44c6.33,0,13.02-2.24,16-6.52v-8.03ZM697.14,954.96c-5.58,6.71-16.37,11.18-27.89,11.18-13.77,0-30.9-9.32-30.9-29.64,0-21.83,17.16-28.35,30.9-28.35,11.89,0,22.5,3.73,27.89,10.43v-11.37c0-7.84-6.69-13.06-18.23-13.06-9.34.1-18.36,3.46-25.49,9.5l-10.22-18.09c11.54-9.89,26.98-13.99,40.75-13.99,21.57,0,41.85,8.03,41.85,36.01v56.32h-28.59l-.06-8.94Z"/>
  <path class="f" d="M746.63,873.82h28.59v11.38c5.95-7.27,17.3-13.62,28.09-13.62v27.79c-2.29-.67-4.68-.99-7.06-.93-7.45,0-17.31,3.17-21.03,8.4v57.06h-28.59v-90.09Z"/>
  <path class="f" d="M839.82,909.26h37.01c-.74-6.35-5.39-15.48-18.59-15.48-12.45,0-17.28,8.95-18.43,15.48ZM858.26,871.58c26.61,0,45.95,19.58,45.95,50.17v6.15h-63.99c1.67,8.39,9.48,16.04,22.87,16.04,8.01,0,16.93-3.17,21.96-7.65l12.09,17.92c-8.94,8.01-23.82,11.93-37.59,11.93-27.72,0-49.11-18.09-49.11-47.3,0-26.16,19.72-47.24,47.81-47.24Z"/>
  <path class="f" d="M971.35,932.76c-2.97-4.1-9.68-6.34-16-6.34-7.63,0-14.3,3.35-14.3,10.45s6.69,10.44,14.3,10.44c6.32,0,13.02-2.24,16-6.52v-8.03ZM971.35,954.96c-5.58,6.71-16.37,11.18-27.91,11.18-13.77,0-30.88-9.32-30.88-29.64,0-21.83,17.16-28.35,30.88-28.35,11.91,0,22.52,3.73,27.91,10.43v-11.37c0-7.84-6.71-13.06-18.23-13.06-9.34.09-18.36,3.45-25.49,9.5l-10.24-18.09c11.54-9.89,26.98-13.99,40.75-13.99,21.59,0,41.86,8.03,41.86,36.01v56.32h-28.65v-8.94Z"/>
  <path class="c" d="M847.45,245.22c-1.11-.79-1.47-2.27-.87-3.48,9.53-19.28,14.52-40.49,14.58-62.01C861.16,80.47,754.47,0,622.85,0c-42.89,0-83.25,8.6-118.05,23.59-.61.26-1.3.26-1.92,0C468.09,8.59,427.79,0,384.84,0c-131.62,0-238.31,80.47-238.31,179.73.06,21.52,5.05,42.73,14.58,62.01.6,1.22.23,2.69-.87,3.48-54.01,36.94-88.54,93.43-88.54,156.75,0,111.29,107.5,216.58,238.3,201.5,81.49-9.39,136.71-88.25,180.14-137.93.46-.56,1.15-.88,1.87-.87h1.94c.71,0,8.16-5.88,8.35-5.16,9.44,37.84,114.5,136.17,195.42,143.97,131.04,12.56,238.3-90.21,238.3-201.5-.03-63.33-34.56-119.82-88.57-156.75Z"/>
  <path class="d" d="M874.56,463.85c.71-6.06-4.98-11.04-10.69-13.07-9.49-3.35-19.93-1.89-29.94-.13-65.01,11.47-128.67,30.97-195.26,14.33-15.15-3.7-29.08-11.26-40.46-21.94-3.29-2.83-5.83-6.44-7.39-10.49-1.01-3.74-1.25-7.64-.71-11.47,2.33-28.54,16.28-78-21.45-89.56-1.52-.61-3.2-.68-4.76-.19-2.86,1.18-3.3,5.16-2.13,8.06s3.15,5.4,3.92,8.4c1.14,4.54-.89,9.22-2.86,13.47-5.28,10.47-11.67,20.35-19.06,29.45-17.66,23.15-24.98,52.59-20.22,81.34.13.83.24,1.65.34,2.44,2.67,20.58-24.98,82.16,41.66,157.77,7.02,7.94,20.6,20.87,36.23,35.5v-82.59c-1.18-6.03,2.38-11.98,8.25-13.77,73.07-37.27,147.04-75.51,227.32-94.33,7.66-1.73,36.03-2.9,37.21-13.23Z"/>
  <path class="d" d="M296.14,463.99c16.4,3.88,33.85,2.87,50.88,1.69,20.44-1.32,41.46-2.87,59.62-10.75-4.76-5.6-15.3-9.22-18.74-15.14-2.94-5.1-5.39-10.47-7.32-16.04-2.62-7.54-4.22-15.41-8.58-22.4-4.7-7.84-12.87-12.94-21.96-13.7,3.17,19.29,8.81,39.63,9.44,59.14-8.99-4.46-16.78-11.02-22.72-19.12-11.17-16.24-24.59-32.18-48.21-36.74-.66-.2-1.37-.2-2.03,0-1.24.5-1.04,1.98-.66,3.07,4.45,11.26,10.56,21.79,18.13,31.23,3.3,4.3,6.73,8.51,9.76,12.9,2.32,3.24,6.36,14.48,9.76,16.11-19.04-9.76-41.03-19.29-56.13-33.07-2.22-2.32-4.68-4.42-7.32-6.25-5.57-2.97-11.81-4.42-18.11-4.2-3.46,0-15.4-.21-17.61,2.42-.49.7-.42,1.65.17,2.27.54.72,43.76,42.05,71.63,48.58Z"/>
  <path class="d" d="M733.82,454.13c28.02-6.58,43.09-29.2,64.54-43.96,1.7-1.16,3.42-2.19,5.2-3.33.81-.4,1.55-.95,2.16-1.62.57-.6.64-1.51.17-2.19-2.29-2.69-14.21-2.51-17.67-2.48-6.33-.23-12.61,1.21-18.2,4.19-2.69,1.85-5.2,3.96-7.48,6.31-15.14,13.92-37.17,23.44-56.34,33.27,3.42-1.76,7.51-12.9,9.82-16.21,3.13-4.39,6.59-8.6,9.89-13,7.62-9.48,13.76-20.07,18.23-31.39.39-1.1.57-2.57-.67-3.08-.66-.19-1.37-.19-2.03,0-23.73,4.6-37.17,20.64-48.44,36.97-5.99,8.15-13.84,14.74-22.87,19.25.61-19.64,6.29-40,9.48-59.5-9.66.52-17.64,6.74-22.03,13.79-4.39,7.05-5.98,14.92-8.58,22.52-1.96,5.6-4.44,11-7.41,16.14-3.46,5.95-14.04,9.58-18.83,15.22,18.14,7.97,39.34,9.46,59.87,10.79,17.18,1.12,34.73,2.22,51.18-1.68Z"/>
  <path class="d" d="M672,766c-6.05-18.2-98.65-96.91-121.52-122.9-66.64-75.6-38.99-137.21-41.66-157.76-5.15-40.61-22.02-76.8-39.22-113.32-1.99-4.3-4.05-8.93-2.86-13.47.77-3,2.86-5.49,3.92-8.4,1.06-2.91.6-6.88-2.24-8.07-1.57-.49-3.26-.42-4.79.2-37.63,11.55-23.68,61.02-21.45,89.56.52,3.83.28,7.73-.7,11.47-1.58,4.03-4.11,7.62-7.38,10.45-13.45,12.9-31.32,20.28-49.55,23.98-63.32,12.9-124.18-5.37-186.24-16.33-9.92-1.76-20.37-3.22-29.94.13-5.72,2.14-11.44,7.01-10.69,13.07,1.22,10.33,29.58,11.47,37.34,13.32,80.28,18.69,145.68,56.98,218.75,94.24,2.57,1.04,4.82,2.73,6.53,4.92,20.21,32.58,23.36,72.99,8.42,108.32-14.8,35.98-76.22,67.76-71.07,72.08.84.69,53.3-14.33,114.37-20.17,1.09-3.12,2.04-6.28,2.86-9.47,5.36-19.44,7.15-39.95,6.65-60.5-.21-10.31-.93-20.65-2.17-30.99-1.24-10.33-2.86-20.68-4.92-31.06,4.6,9.61,8.29,19.64,11.02,29.94,2.77,10.35,4.77,20.89,5.98,31.53,2.32,21.31,1.43,43.37-4.39,64.5-.47,1.68-.99,3.35-1.52,5.03,11.51-.8,23.2-1.22,34.81-1.09,78.8.79,153.62,26.57,151.65,20.78Z"/>
  <path class="f" d="M249.52,95.42c2.49,4.74,5.8,9,9.78,12.57,3.89,3.68,8.01,7.27,12.07,10.82,8.14,7.08,16.61,13.77,26.06,18.38,9.45,4.6,19.73,7.51,30.18,9.93l15.86,3.61c5.33,1.22,10.67,2.61,15.94,4.14,10.59,3.05,20.99,6.7,31.17,10.94,10.18,4.28,19.97,9.46,29.25,15.47,4.73,3.07,9.24,6.48,13.48,10.21,4.23,3.75,8.1,7.9,11.55,12.38,3.46,4.49,6.34,9.4,8.58,14.61,2.21,5.16,3.53,10.65,3.9,16.25l-.99.19c-3.49-10.02-9.26-19.09-16.84-26.5-3.68-3.68-7.63-7.07-11.82-10.15-4.17-3.12-8.55-5.96-13.1-8.5-9.24-5.29-18.62-10.27-28.15-14.96-9.55-4.75-19.41-8.87-29.49-12.34-10.01-3.51-20.44-6.11-31-9.02-10.55-2.91-21.13-6.34-30.91-11.81-9.78-5.47-18.04-12.9-25.81-20.54-3.89-3.84-7.73-7.61-11.44-11.61-3.85-3.97-6.95-8.6-9.18-13.66l.9-.4Z"/>
  <path class="f" d="M460.44,245c-6.7-12-10.71-25.33-11.75-39.05-.51-6.86-.48-13.75.1-20.6.57-6.82,1.5-13.49,2.7-20.2,2.28-13.49,6.23-26.63,11.77-39.13,2.81-6.27,6.26-12.23,10.29-17.79,2-2.77,4.22-5.38,6.62-7.81,2.36-2.44,4.94-4.66,7.71-6.62-8.36,10.56-13.72,22.56-17.8,34.9-3.91,12.46-6.86,25.2-8.84,38.11-.53,3.24-1.01,6.48-1.43,9.73-.46,3.25-.84,6.52-1.2,9.75-.73,6.48-1.27,12.9-1.43,19.39-.17,6.5.04,13.01.64,19.48.61,6.54,1.6,13.1,2.62,19.82Z"/>
  <path class="f" d="M348.01,157.66l-32.43-5.33c-10.74-1.98-21.64-2.99-32.57-3.02-10.79.05-21.49,2.12-31.52,6.09-4.99,2.05-9.73,4.64-14.14,7.74-4.42,3.18-8.54,6.76-12.31,10.69l-.23-.19c6.59-9.05,15.4-16.22,25.59-20.81,5.11-2.28,10.49-3.89,16.01-4.8,5.49-.89,11.04-1.28,16.6-1.16,11.02.35,21.98,1.69,32.75,4.03l32.24,6.48v.29Z"/>
  <path class="f" d="M515.74,338.5c-1.59-16.17.28-32.49,5.49-47.87,2.59-7.75,6.07-15.16,10.37-22.1,4.31-7.02,9.54-13.42,15.55-19.03,6.06-5.61,12.85-10.38,20.17-14.19,7.23-3.71,14.68-6.98,22.3-9.8,7.58-2.87,15.3-5.45,23.06-7.67,7.76-2.22,15.54-4.3,23.25-6.31,15.41-4.03,30.39-8.76,44.32-15.45,6.89-3.3,13.95-7.17,20.87-10.95,6.92-3.78,13.71-7.77,20.27-12.05,6.55-4.27,12.86-8.91,18.89-13.89,5.98-4.99,11.53-10.47,16.61-16.38,2.53-2.97,4.9-6.06,7.15-9.26,2.24-3.2,4.29-6.58,6.16-10.03,3.75-6.99,6.77-14.34,8.99-21.96l.97.2c-1.06,8.08-3.16,15.99-6.23,23.54-3.14,7.61-7.16,14.83-11.98,21.5-4.82,6.68-10.28,12.87-16.28,18.5-2.98,2.87-6.06,5.58-9.24,8.14-3.17,2.58-6.45,5.05-9.76,7.41-6.66,4.74-13.52,9.14-20.53,13.2-3.5,2.04-7.02,4.03-10.57,5.93-1.76.96-3.53,1.91-5.4,2.87-1.87.96-3.66,1.91-5.58,2.71-7.48,3.41-15.21,6.25-23.12,8.47-7.85,2.27-15.73,4.1-23.56,5.88-15.65,3.47-31.08,6.91-45.96,12.13-7.47,2.49-14.78,5.43-21.89,8.8-7.01,3.34-13.54,7.61-19.43,12.68-11.78,10.43-20.83,23.59-26.38,38.33-5.71,14.87-8.28,30.76-7.55,46.67h-.97Z"/>
  <path class="f" d="M582.48,232.86c5.43-5.79,10.43-11.97,14.97-18.49,4.47-6.36,8.58-12.99,12.87-19.65l3.23-5.02,3.26-4.95c2.12-3.14,4.07-6.4,5.85-9.75,1.73-3.29,3.02-6.79,3.85-10.41.89-3.82,1.03-7.77.41-11.64,2.64,3.43,4.2,7.56,4.49,11.88.36,4.39-.12,8.82-1.43,13.03-1.26,4.08-2.94,8.02-5.02,11.75-1.97,3.64-4.05,7.05-6.22,10.51-4.37,7.01-9.5,13.52-15.3,19.39-5.96,5.73-12.98,10.82-20.96,13.33Z"/>
  <path class="f" d="M771.82,274c-13.07-2.99-26.6-3.45-39.85-1.35-4.34.64-8.64,1.57-12.87,2.78-4.19,1.21-8.27,2.76-12.21,4.63l-11.75,5.4c-4.12,1.86-8.24,3.54-12.31,5.29-4.07,1.75-8.18,3.58-12.55,5.38l-.64-.76c5.16-8.08,13.08-14,20.82-18.76,4.07-2.5,8.45-4.45,13.02-5.81,4.56-1.29,9.19-2.34,13.87-3.14,4.62-.83,9.29-1.36,13.98-1.59,4.67-.19,9.34-.06,14,.39,9.21.9,18.24,3.13,26.81,6.64l-.31.9Z"/>
  <path class="f" d="M676.45,288.57c9.42-4.52,19.78-6.73,30.22-6.45,1.3,0,2.62,0,3.92.11,1.3.12,2.59.27,3.87.44,1.29.17,2.57.39,3.86.6l3.79.93,3.76,1,3.69,1.2,3.67,1.2,3.62,1.32,3.62,1.32,3.53,1.43,3.53,1.43,3.46,1.61,3.45,1.63,3.36,1.76c2.26,1.15,4.47,2.37,6.68,3.61,8.75,5.03,17.16,10.38,25.58,15.9l-.49.89c-9.14-4.13-18.1-8.6-27.29-12.28-2.27-.97-4.56-1.92-6.88-2.87l-3.45-1.33-3.49-1.22-3.46-1.23-3.5-1.1-3.5-1.09-3.53-.93-3.53-.9-3.57-.67-3.56-.65-3.59-.43-3.56-.52-3.56-.4c-1.19-.14-2.36-.32-3.55-.5-1.19-.19-2.36-.26-3.55-.42-2.37-.3-4.75-.69-7.15-.83-2.4-.14-4.8-.6-7.23-.66-1.22-.07-2.43-.14-3.67-.26-1.24-.12-2.47-.27-3.7-.27-2.49-.11-4.99-.22-7.59-.56l-.2-.83Z"/>
  <path class="f" d="M217.91,336.48c6.9-3.01,13.59-6.5,20.02-10.44,6.6-3.91,13.44-7.38,20.49-10.41,14.26-5.99,29.29-9.93,44.65-11.71,15.19-1.68,30.49-2.12,45.75-1.32,15.17.64,30.21,1.78,45.36,3.31-15.08,2.11-30.28,2.87-45.35,3.5-15.07.63-30.02,1.28-44.78,3.04-14.69,1.69-29.17,4.82-43.25,9.35-7.15,2.26-14.04,4.9-21.04,7.81-7.01,2.91-14.31,5.69-21.85,6.87Z"/>
  <path class="f" d="M245.43,261.85c5.72,2.98,10.98,6.39,16.24,9.72,5.26,3.33,10.42,6.68,15.6,9.85,5.18,3.17,10.31,6.26,15.53,9.16,5.17,2.97,10.66,5.35,16.37,7.08,5.81,1.68,11.76,2.81,17.77,3.38,6.09.73,12.34,1.18,18.59,1.71,12.45,1.16,24.92,2.18,37.39,3.45v1c-12.52.32-25.03.36-37.54.56-6.25,0-12.5.13-18.87,0-6.47-.16-12.91-.92-19.24-2.26-6.41-1.39-12.69-3.37-18.73-5.93-5.99-2.57-11.65-5.86-16.86-9.79-5.12-3.84-9.94-8.07-14.43-12.64-4.49-4.51-8.66-9.35-12.45-14.46l.64-.82Z"/>
  <path class="e" d="M333.01,224.9c0,2.53-.48,4.96-1.45,7.3-.97,2.34-2.34,4.4-4.12,6.19-1.78,1.79-3.84,3.17-6.17,4.14-2.33.97-4.76,1.45-7.28,1.45s-4.95-.49-7.28-1.45c-2.33-.97-4.39-2.35-6.17-4.14s-3.16-3.85-4.12-6.19c-.97-2.34-1.45-4.77-1.45-7.3s.48-4.96,1.45-7.3c.97-2.34,2.34-4.4,4.12-6.19s3.84-3.17,6.17-4.14c2.33-.97,4.76-1.45,7.28-1.45s4.95.49,7.28,1.45c2.33.97,4.39,2.35,6.17,4.14,1.78,1.79,3.16,3.85,4.12,6.19.97,2.34,1.45,4.77,1.45,7.3Z"/>
  <path class="e" d="M550.62,165.18c0,3.11-.59,6.1-1.78,8.97-1.19,2.87-2.88,5.41-5.07,7.61-2.19,2.2-4.72,3.89-7.59,5.08-2.87,1.19-5.85,1.78-8.95,1.78s-6.08-.6-8.95-1.78c-2.87-1.19-5.39-2.88-7.59-5.08-2.19-2.2-3.88-4.73-5.07-7.61-1.19-2.87-1.78-5.87-1.78-8.97s.59-6.1,1.78-8.97c1.19-2.87,2.88-5.41,5.07-7.61,2.19-2.2,4.72-3.89,7.59-5.08,2.87-1.19,5.85-1.78,8.95-1.78s6.08.6,8.95,1.78c2.87,1.19,5.39,2.89,7.59,5.08,2.19,2.2,3.88,4.73,5.07,7.61,1.19,2.87,1.78,5.87,1.78,8.97Z"/>
  <path class="e" d="M397.35,75.24c0,2.55-.49,5-1.46,7.35-.97,2.35-2.36,4.43-4.15,6.23-1.8,1.8-3.87,3.19-6.21,4.16-2.35.97-4.79,1.46-7.33,1.46s-4.98-.49-7.33-1.46c-2.35-.97-4.42-2.36-6.21-4.16-1.8-1.8-3.18-3.88-4.15-6.23-.97-2.35-1.46-4.8-1.46-7.35s.49-5,1.46-7.35c.97-2.35,2.36-4.43,4.15-6.23,1.8-1.8,3.87-3.19,6.21-4.16,2.35-.98,4.79-1.46,7.33-1.46s4.98.49,7.33,1.46c2.35.97,4.42,2.36,6.21,4.16,1.8,1.8,3.18,3.88,4.15,6.23.97,2.35,1.46,4.8,1.46,7.35Z"/>
  <path class="e" d="M629.07,295.72c0,2.53-.48,4.96-1.45,7.3-.97,2.34-2.34,4.4-4.12,6.19-1.79,1.79-3.84,3.17-6.17,4.14-2.33.97-4.76,1.45-7.28,1.45s-4.95-.49-7.28-1.45c-2.33-.97-4.39-2.35-6.17-4.14-1.78-1.79-3.16-3.85-4.12-6.19-.97-2.34-1.45-4.77-1.45-7.3s.48-4.96,1.45-7.3c.97-2.34,2.34-4.4,4.12-6.19,1.78-1.79,3.84-3.17,6.17-4.14,2.33-.97,4.76-1.45,7.28-1.45s4.95.49,7.28,1.45c2.33.97,4.39,2.35,6.17,4.14,1.78,1.79,3.16,3.85,4.12,6.19.97,2.34,1.45,4.77,1.45,7.3Z"/>
  <path class="e" d="M700.57,101.67c0,2.55-.49,5-1.46,7.35-.97,2.35-2.36,4.43-4.15,6.23-1.8,1.8-3.87,3.19-6.21,4.16-2.35.98-4.79,1.46-7.33,1.46s-4.98-.49-7.33-1.46c-2.35-.97-4.42-2.36-6.21-4.16-1.8-1.8-3.18-3.88-4.15-6.23-.97-2.35-1.46-4.8-1.46-7.35s.49-5,1.46-7.35c.97-2.35,2.36-4.43,4.15-6.23,1.8-1.8,3.87-3.19,6.21-4.16,2.35-.98,4.79-1.46,7.33-1.46s4.98.49,7.33,1.46c2.35.97,4.42,2.36,6.21,4.16,1.8,1.8,3.18,3.88,4.15,6.23.97,2.35,1.46,4.8,1.46,7.35Z"/>
</svg>