<?xml version="1.0" encoding="UTF-8"?>
<svg id="a" data-name="Contents" xmlns="http://www.w3.org/2000/svg" viewBox="0 0 1000 887.99">
  <defs>
    <style>
      .c {
        fill: #9ecd7a;
      }

      .c, .d, .e, .f {
        stroke-width: 0px;
      }

      .d {
        fill: #513024;
      }

      .e {
        fill: #ed6b4d;
      }

      .f {
        fill: #006909;
      }
    </style>
  </defs>
  <path class="c" d="M897.53,283.71c-1.28-.91-1.71-2.62-1.01-4.03,11.03-22.3,16.8-46.85,16.87-71.74C913.39,93.1,789.95,0,637.67,0c-49.62,0-96.32,9.95-136.58,27.3-.71.3-1.51.3-2.22,0C458.61,9.93,411.99,0,362.3,0,210.02,0,86.58,93.1,86.58,207.94c.07,24.89,5.84,49.44,16.87,71.74.7,1.41.27,3.12-1.01,4.03C39.95,326.45,0,391.8,0,465.07c0,128.75,124.37,250.58,275.7,233.13,94.28-10.86,158.16-102.11,208.42-159.58.53-.65,1.33-1.02,2.17-1.01h2.25c.83,0,9.44-6.8,9.66-5.97,10.92,43.78,132.48,157.54,226.1,166.57,151.61,14.53,275.7-104.38,275.7-233.13-.03-73.27-39.98-138.62-102.47-181.36Z"/>
  <path class="d" d="M928.89,536.66c.83-7.02-5.76-12.77-12.37-15.12-10.98-3.88-23.06-2.19-34.64-.15-75.21,13.27-148.87,35.84-225.92,16.58-17.52-4.28-33.65-13.03-46.81-25.39-3.81-3.28-6.74-7.45-8.55-12.14-1.17-4.32-1.45-8.83-.83-13.27,2.7-33.02,18.84-90.25-24.81-103.61-1.75-.71-3.7-.79-5.51-.22-3.31,1.36-3.82,5.97-2.46,9.32s3.64,6.25,4.53,9.72c1.32,5.26-1.03,10.66-3.31,15.59-6.11,12.12-13.5,23.55-22.05,34.08-20.43,26.79-28.9,60.85-23.39,94.11.15.96.28,1.91.4,2.82,3.09,23.81-28.9,95.06,48.2,182.54,8.12,9.19,23.84,24.14,41.91,41.08v-95.55c-1.37-6.98,2.76-13.87,9.54-15.94,84.54-43.12,170.12-87.36,263-109.14,8.87-2.01,41.68-3.35,43.06-15.31Z"/>
  <path class="d" d="M259.68,536.83c18.97,4.49,39.17,3.32,58.87,1.96,23.65-1.53,47.97-3.32,68.98-12.44-5.51-6.48-17.7-10.66-21.69-17.51-3.4-5.9-6.24-12.12-8.47-18.56-3.03-8.72-4.88-17.83-9.92-25.92-5.44-9.07-14.89-14.97-25.41-15.85,3.67,22.32,10.19,45.85,10.92,68.42-10.4-5.16-19.41-12.75-26.28-22.12-12.92-18.79-28.45-37.23-55.78-42.5-.77-.23-1.58-.23-2.35,0-1.44.58-1.21,2.29-.76,3.55,5.15,13.03,12.22,25.21,20.97,36.14,3.82,4.97,7.79,9.85,11.3,14.93,2.68,3.75,7.36,16.75,11.3,18.64-22.03-11.29-47.47-22.32-64.94-38.26-2.57-2.69-5.41-5.11-8.47-7.23-6.44-3.43-13.67-5.11-20.96-4.86-4,0-17.81-.25-20.38,2.8-.57.81-.48,1.91.2,2.62.63.83,50.63,48.66,82.87,56.2Z"/>
  <path class="d" d="M766.06,525.42c32.42-7.61,49.85-33.78,74.67-50.86,1.97-1.34,3.95-2.54,6.02-3.85.94-.46,1.79-1.1,2.5-1.88.65-.69.74-1.75.2-2.54-2.65-3.12-16.44-2.9-20.44-2.87-7.32-.27-14.59,1.4-21.06,4.84-3.11,2.14-6.01,4.59-8.65,7.3-17.52,16.1-43.01,27.11-65.19,38.49,3.95-2.04,8.68-14.93,11.36-18.76,3.62-5.08,7.63-9.95,11.45-15.04,8.81-10.97,15.92-23.22,21.09-36.32.45-1.28.66-2.97-.78-3.57-.77-.22-1.58-.22-2.35,0-27.46,5.32-43.01,23.88-56.04,42.77-6.93,9.42-16.01,17.06-26.47,22.27.71-22.72,7.28-46.28,10.97-68.84-11.18.6-20.41,7.79-25.49,15.95-5.08,8.16-6.91,17.26-9.92,26.05-2.27,6.48-5.14,12.73-8.57,18.67-4,6.88-16.24,11.08-21.78,17.61,20.99,9.22,45.52,10.94,69.27,12.49,19.88,1.29,40.18,2.57,59.22-1.94Z"/>
  <path class="d" d="M694.54,886.24c-7-21.06-114.13-112.12-140.6-142.19-77.1-87.46-45.11-158.75-48.2-182.52-5.95-46.98-25.47-88.85-45.37-131.11-2.3-4.97-4.68-10.33-3.31-15.59.89-3.47,3.31-6.35,4.53-9.72,1.22-3.37.69-7.96-2.6-9.34-1.82-.56-3.78-.48-5.54.23-43.54,13.37-27.39,70.6-24.81,103.61.6,4.43.32,8.94-.81,13.27-1.82,4.67-4.75,8.81-8.54,12.09-15.57,14.93-36.24,23.47-57.33,27.74-73.26,14.93-143.67-6.22-215.48-18.89-11.48-2.04-23.57-3.73-34.64.15-6.62,2.47-13.23,8.11-12.37,15.13,1.41,11.96,34.22,13.27,43.21,15.41,92.88,21.63,168.55,65.92,253.09,109.04,2.97,1.2,5.58,3.16,7.56,5.69,23.39,37.7,27.02,84.45,9.74,125.32-17.12,41.62-88.18,78.39-82.23,83.4.98.8,61.66-16.58,132.33-23.33,1.26-3.61,2.36-7.27,3.31-10.96,6.2-22.49,8.27-46.22,7.69-70-.25-11.92-1.08-23.9-2.51-35.85-1.44-11.96-3.31-23.93-5.69-35.94,5.32,11.12,9.59,22.72,12.75,34.64,3.21,11.97,5.52,24.17,6.91,36.48,2.68,24.66,1.65,50.18-5.08,74.63-.55,1.94-1.14,3.88-1.75,5.82,13.32-.93,26.85-1.41,40.28-1.26,91.17.91,177.73,30.75,175.45,24.05Z"/>
  <path class="f" d="M205.74,110.4c2.88,5.48,6.71,10.41,11.31,14.54,4.5,4.26,9.26,8.41,13.96,12.52,9.41,8.19,19.22,15.94,30.15,21.26,10.93,5.32,22.83,8.69,34.92,11.49l18.34,4.18c6.17,1.41,12.34,3.02,18.44,4.79,12.25,3.53,24.29,7.76,36.06,12.65,11.78,4.96,23.11,10.94,33.84,17.89,5.48,3.55,10.69,7.5,15.6,11.81,4.9,4.34,9.37,9.14,13.37,14.33,4,5.19,7.34,10.87,9.92,16.9,2.56,5.96,4.09,12.32,4.52,18.81l-1.14.22c-4.04-11.6-10.71-22.09-19.49-30.66-4.25-4.26-8.82-8.18-13.68-11.74-4.83-3.61-9.89-6.9-15.15-9.83-10.69-6.11-21.54-11.88-32.57-17.31-11.05-5.49-22.45-10.26-34.12-14.28-11.58-4.06-23.65-7.07-35.86-10.43-12.21-3.37-24.45-7.33-35.76-13.66-11.31-6.33-20.87-14.92-29.86-23.76-4.5-4.44-8.95-8.81-13.23-13.43-4.45-4.59-8.05-9.95-10.62-15.8l1.04-.46Z"/>
  <path class="f" d="M449.77,283.46c-7.75-13.89-12.39-29.3-13.6-45.17-.59-7.93-.55-15.9.12-23.83.66-7.89,1.74-15.61,3.13-23.37,2.63-15.6,7.21-30.81,13.61-45.27,3.25-7.25,7.24-14.15,11.91-20.58,2.32-3.2,4.88-6.23,7.66-9.04,2.73-2.82,5.72-5.39,8.92-7.66-9.68,12.22-15.88,26.1-20.59,40.38-4.52,14.42-7.94,29.16-10.22,44.1-.62,3.75-1.17,7.5-1.65,11.26-.53,3.77-.98,7.54-1.39,11.28-.84,7.5-1.47,14.93-1.65,22.44-.2,7.52.05,15.05.74,22.54.71,7.56,1.85,15.16,3.03,22.94Z"/>
  <path class="f" d="M319.69,182.4l-37.51-6.17c-12.43-2.29-25.04-3.46-37.68-3.5-12.49.06-24.86,2.45-36.47,7.05-5.77,2.37-11.25,5.37-16.36,8.95-5.12,3.68-9.88,7.82-14.24,12.37l-.26-.21c7.62-10.47,17.82-18.76,29.61-24.08,5.91-2.63,12.14-4.5,18.53-5.56,6.35-1.03,12.78-1.48,19.2-1.34,12.75.4,25.43,1.96,37.9,4.66l37.3,7.5v.33Z"/>
  <path class="f" d="M513.75,391.64c-1.84-18.71.32-37.59,6.35-55.39,3-8.96,7.02-17.54,11.99-25.57,4.98-8.12,11.04-15.53,18-22.02,7.02-6.49,14.87-12.01,23.34-16.42,8.37-4.29,16.99-8.08,25.8-11.34,8.77-3.32,17.7-6.3,26.68-8.87,8.98-2.57,17.98-4.97,26.9-7.3,17.83-4.66,35.17-10.13,51.28-17.88,7.97-3.81,16.14-8.29,24.15-12.67,8.01-4.38,15.86-8.99,23.46-13.95,7.58-4.94,14.88-10.31,21.85-16.07,6.92-5.78,13.35-12.12,19.22-18.96,2.93-3.43,5.67-7.01,8.27-10.71,2.6-3.7,4.96-7.61,7.13-11.61,4.34-8.08,7.83-16.6,10.4-25.41l1.12.23c-1.23,9.35-3.65,18.5-7.21,27.23-3.63,8.81-8.28,17.16-13.86,24.88-5.58,7.73-11.89,14.89-18.84,21.41-3.45,3.32-7.01,6.46-10.69,9.42-3.67,2.99-7.46,5.84-11.3,8.57-7.71,5.49-15.65,10.58-23.75,15.27-4.05,2.35-8.12,4.66-12.22,6.87-2.03,1.11-4.09,2.21-6.25,3.32-2.17,1.11-4.23,2.21-6.45,3.13-8.65,3.95-17.59,7.23-26.75,9.8-9.08,2.62-18.19,4.74-27.26,6.8-18.11,4.01-35.96,7.99-53.18,14.03-8.64,2.88-17.1,6.28-25.32,10.18-8.11,3.87-15.67,8.8-22.48,14.68-13.63,12.07-24.11,27.29-30.52,44.34-6.6,17.2-9.58,35.58-8.73,54h-1.12Z"/>
  <path class="f" d="M590.96,269.42c6.28-6.7,12.07-13.85,17.32-21.39,5.18-7.36,9.92-15.03,14.89-22.74l3.74-5.8,3.77-5.72c2.45-3.64,4.71-7.4,6.77-11.28,2-3.8,3.49-7.85,4.45-12.04,1.03-4.42,1.19-8.99.48-13.47,3.05,3.97,4.86,8.75,5.19,13.75.42,5.08-.14,10.2-1.65,15.07-1.45,4.73-3.4,9.28-5.81,13.6-2.28,4.21-4.68,8.16-7.2,12.16-5.05,8.12-10.99,15.64-17.7,22.44-6.9,6.63-15.02,12.52-24.25,15.42Z"/>
  <path class="f" d="M810.03,317.01c-15.13-3.46-30.77-3.99-46.1-1.56-5.03.74-10,1.82-14.89,3.22-4.85,1.4-9.57,3.19-14.13,5.36l-13.6,6.25c-4.76,2.15-9.53,4.1-14.24,6.12-4.71,2.02-9.46,4.15-14.52,6.22l-.74-.88c5.97-9.35,15.13-16.2,24.08-21.71,4.71-2.89,9.77-5.15,15.07-6.72,5.28-1.49,10.64-2.71,16.04-3.63,5.35-.96,10.75-1.57,16.18-1.84,5.4-.22,10.81-.07,16.19.45,10.65,1.04,21.1,3.63,31.01,7.68l-.36,1.04Z"/>
  <path class="f" d="M699.68,333.86c10.9-5.23,22.89-7.78,34.97-7.46,1.51,0,3.03,0,4.53.13,1.5.13,2.99.31,4.48.51,1.49.2,2.98.45,4.47.7l4.38,1.08,4.35,1.16,4.27,1.39,4.25,1.39,4.18,1.53,4.19,1.53,4.09,1.66,4.09,1.66,4,1.86,3.99,1.89,3.89,2.04c2.61,1.33,5.18,2.74,7.72,4.18,10.12,5.82,19.85,12.01,29.59,18.39l-.56,1.03c-10.57-4.77-20.94-9.95-31.58-14.21-2.63-1.13-5.28-2.22-7.96-3.32l-3.99-1.54-4.04-1.41-4-1.42-4.05-1.28-4.05-1.26-4.09-1.08-4.09-1.04-4.14-.78-4.12-.75-4.15-.5-4.12-.6-4.12-.46c-1.37-.16-2.73-.36-4.1-.58-1.37-.22-2.73-.3-4.1-.48-2.75-.35-5.49-.8-8.27-.96-2.78-.17-5.56-.7-8.37-.76-1.41-.08-2.81-.17-4.25-.3-1.44-.13-2.86-.32-4.28-.32-2.88-.13-5.77-.25-8.78-.65l-.23-.96Z"/>
  <path class="f" d="M169.16,389.3c7.99-3.49,15.72-7.52,23.16-12.07,7.64-4.52,15.55-8.54,23.7-12.04,16.5-6.93,33.89-11.49,51.66-13.55,17.57-1.94,35.28-2.46,52.93-1.53,17.55.75,34.95,2.06,52.48,3.83-17.45,2.44-35.03,3.32-52.47,4.05-17.43.73-34.74,1.48-51.81,3.52-16.99,1.95-33.75,5.57-50.04,10.81-8.27,2.62-16.24,5.67-24.35,9.04-8.11,3.37-16.56,6.58-25.27,7.94Z"/>
  <path class="f" d="M201.01,302.95c6.62,3.45,12.7,7.4,18.79,11.24,6.09,3.85,12.06,7.73,18.05,11.39,5.99,3.66,11.93,7.25,17.96,10.6,5.98,3.44,12.34,6.19,18.94,8.19,6.72,1.94,13.6,3.25,20.56,3.91,7.05.85,14.27,1.36,21.5,1.97,14.41,1.34,28.83,2.52,43.25,4v1.16c-14.49.36-28.96.41-43.44.65-7.23,0-14.46.15-21.83,0-7.49-.19-14.94-1.07-22.26-2.62-7.42-1.6-14.68-3.9-21.67-6.87-6.93-2.98-13.48-6.78-19.5-11.33-5.92-4.45-11.5-9.34-16.69-14.63-5.2-5.22-10.01-10.81-14.41-16.73l.74-.94Z"/>
  <path class="e" d="M302.34,260.2c0,2.93-.56,5.74-1.68,8.44-1.12,2.7-2.71,5.09-4.77,7.16-2.06,2.07-4.45,3.66-7.14,4.78-2.7,1.12-5.5,1.68-8.42,1.68s-5.73-.56-8.43-1.68c-2.7-1.12-5.08-2.71-7.14-4.78s-3.65-4.46-4.77-7.16c-1.12-2.7-1.68-5.52-1.68-8.45s.56-5.74,1.68-8.45c1.12-2.7,2.71-5.09,4.77-7.16,2.06-2.07,4.45-3.66,7.14-4.79,2.7-1.12,5.51-1.68,8.43-1.68s5.73.56,8.42,1.68c2.7,1.12,5.08,2.72,7.14,4.79,2.06,2.07,3.65,4.46,4.77,7.16,1.12,2.7,1.68,5.52,1.68,8.45Z"/>
  <path class="e" d="M554.11,191.11c0,3.6-.69,7.06-2.06,10.38-1.37,3.32-3.33,6.26-5.87,8.8-2.54,2.54-5.46,4.5-8.78,5.88-3.32,1.38-6.77,2.06-10.36,2.06s-7.04-.69-10.36-2.06c-3.31-1.38-6.24-3.34-8.78-5.88-2.54-2.54-4.49-5.48-5.87-8.8-1.37-3.33-2.06-6.79-2.06-10.38s.69-7.06,2.06-10.38c1.37-3.32,3.33-6.26,5.87-8.8,2.54-2.54,5.46-4.5,8.78-5.88,3.32-1.38,6.77-2.06,10.36-2.06s7.04.69,10.36,2.06c3.31,1.38,6.24,3.34,8.78,5.88,2.54,2.54,4.49,5.48,5.87,8.8,1.37,3.33,2.06,6.79,2.06,10.38Z"/>
  <path class="e" d="M376.77,87.05c0,2.95-.56,5.78-1.69,8.5-1.12,2.72-2.73,5.12-4.81,7.21-2.08,2.08-4.47,3.69-7.19,4.82-2.72,1.13-5.54,1.69-8.48,1.69s-5.77-.56-8.48-1.69c-2.72-1.13-5.11-2.73-7.19-4.82-2.08-2.08-3.68-4.49-4.81-7.21-1.12-2.72-1.69-5.56-1.69-8.5s.56-5.78,1.69-8.5c1.12-2.72,2.73-5.13,4.81-7.21,2.08-2.08,4.47-3.69,7.19-4.82,2.72-1.13,5.54-1.69,8.48-1.69s5.77.56,8.48,1.69c2.72,1.13,5.11,2.73,7.19,4.82,2.08,2.08,3.68,4.49,4.81,7.21,1.12,2.72,1.69,5.56,1.69,8.5Z"/>
  <path class="e" d="M644.87,342.14c0,2.93-.56,5.74-1.68,8.44-1.12,2.7-2.71,5.09-4.77,7.16-2.07,2.07-4.45,3.66-7.14,4.78-2.7,1.12-5.5,1.68-8.42,1.68s-5.73-.56-8.43-1.68c-2.7-1.12-5.08-2.71-7.14-4.78-2.06-2.07-3.65-4.46-4.77-7.16-1.12-2.7-1.68-5.52-1.68-8.44s.56-5.74,1.68-8.45c1.12-2.7,2.71-5.09,4.77-7.16,2.06-2.07,4.45-3.66,7.14-4.78,2.7-1.12,5.51-1.68,8.43-1.68s5.73.56,8.42,1.68c2.7,1.12,5.08,2.71,7.14,4.78,2.06,2.07,3.65,4.46,4.77,7.16,1.12,2.7,1.68,5.52,1.68,8.45Z"/>
  <path class="e" d="M727.59,117.63c0,2.95-.56,5.78-1.69,8.5-1.12,2.72-2.73,5.13-4.81,7.21-2.08,2.08-4.47,3.69-7.19,4.82-2.72,1.13-5.54,1.69-8.48,1.69s-5.77-.56-8.48-1.69c-2.72-1.13-5.11-2.73-7.19-4.82-2.08-2.08-3.68-4.48-4.81-7.21-1.12-2.72-1.69-5.56-1.69-8.5s.56-5.78,1.69-8.5c1.12-2.72,2.73-5.13,4.81-7.21,2.08-2.08,4.47-3.69,7.19-4.82,2.72-1.13,5.54-1.69,8.48-1.69s5.77.56,8.48,1.69c2.72,1.13,5.11,2.73,7.19,4.82,2.08,2.08,3.68,4.48,4.81,7.21,1.12,2.72,1.69,5.56,1.69,8.5Z"/>
</svg>